# xmcd
#
# Track frame offsets:
#	150
#	17564
#	32216
#	44699
#	63232
#	82881
#
# Disc length: 1366 seconds
#
# Revision: 0
# Processed by: cddbd v1.5.1PL2 Copyright (c) Steve Scherf et al.
# Submitted via: dBpowerAMP V4.0
#
DISCID=43055406
DTITLE=Etch - without making a sound
DYEAR=2004
DGENRE=Blues
TTITLE0=Falling
TTITLE1=Same Old Thing
TTITLE2=Everytime
TTITLE3=All I Need
TTITLE4=Drive
TTITLE5=April Shines
EXTD=
EXTT0=
EXTT1=
EXTT2=
EXTT3=
EXTT4=
EXTT5=
PLAYORDER=
